<svg xmlns="http://www.w3.org/2000/svg" xmlns:xlink="http://www.w3.org/1999/xlink" width="500" zoomAndPan="magnify" viewBox="0 0 375 374.999991" height="500" preserveAspectRatio="xMidYMid meet" version="1.0"><defs><g/><clipPath id="5e725bfdcb"><path d="M 194 135 L 239.152344 135 L 239.152344 170 L 194 170 Z M 194 135 " clip-rule="nonzero"/></clipPath><clipPath id="1f508b1bed"><path d="M 135.652344 135 L 204 135 L 204 203.558594 L 135.652344 203.558594 Z M 135.652344 135 " clip-rule="nonzero"/></clipPath><clipPath id="5732afce90"><path d="M 169 100.058594 L 205 100.058594 L 205 141 L 169 141 Z M 169 100.058594 " clip-rule="nonzero"/></clipPath></defs><g clip-path="url(#5e725bfdcb)"><path fill="#268fcd" d="M 239.152344 151.808594 C 239.152344 137.503906 228.074219 133.257812 215.96875 136.90625 C 208.265625 139.226562 201.171875 142.953125 194.984375 147.785156 C 200.789062 154.042969 205.535156 161.300781 208.933594 169.273438 L 221.6875 169.273438 C 231.292969 169.273438 239.152344 161.414062 239.152344 151.808594 Z M 239.152344 151.808594 " fill-opacity="1" fill-rule="evenodd"/></g><g clip-path="url(#1f508b1bed)"><path fill="#79b84e" d="M 201.539062 178.882812 C 198.628906 169.789062 193.75 161.574219 187.402344 154.742188 C 185.066406 152.230469 182.53125 149.898438 179.820312 147.785156 C 170.019531 140.128906 150.15625 128.351562 139.808594 140.527344 C 137.21875 143.578125 135.652344 147.519531 135.652344 151.808594 C 135.652344 161.414062 143.511719 169.273438 153.117188 169.273438 L 169.9375 169.273438 L 169.9375 186.09375 C 169.9375 187.796875 170.183594 189.441406 170.644531 191 C 172.777344 198.238281 179.5 203.558594 187.402344 203.558594 C 203.277344 203.558594 205.484375 191.191406 201.539062 178.882812 Z M 201.539062 178.882812 " fill-opacity="1" fill-rule="evenodd"/></g><g clip-path="url(#5732afce90)"><path fill="#268fcd" d="M 187.402344 116.902344 C 191.1875 116.902344 194.257812 119.972656 194.257812 123.757812 C 194.257812 127.546875 191.1875 130.617188 187.402344 130.617188 C 183.613281 130.617188 180.542969 127.546875 180.542969 123.757812 C 180.542969 119.972656 183.613281 116.902344 187.402344 116.902344 Z M 169.9375 130.027344 C 176.261719 132.773438 182.132812 136.367188 187.402344 140.667969 C 192.671875 136.367188 198.542969 132.773438 204.867188 130.027344 L 204.867188 117.523438 C 204.867188 107.917969 197.007812 100.058594 187.402344 100.058594 C 177.796875 100.058594 169.9375 107.917969 169.9375 117.523438 Z M 169.9375 130.027344 " fill-opacity="1" fill-rule="evenodd"/></g><g fill="#79b84e" fill-opacity="1"><g transform="translate(100.058235, 241.551181)"><g><path d="M 4.1875 -2.875 C 2.082031 -4.925781 1.03125 -7.519531 1.03125 -10.65625 C 1.03125 -13.800781 2.082031 -16.394531 4.1875 -18.4375 C 6.289062 -20.476562 8.863281 -21.5 11.90625 -21.5 C 14.257812 -21.5 16.351562 -20.875 18.1875 -19.625 C 20.019531 -18.382812 21.296875 -16.65625 22.015625 -14.4375 L 15.859375 -14.4375 C 15.054688 -15.988281 13.765625 -16.765625 11.984375 -16.765625 C 10.210938 -16.765625 8.816406 -16.207031 7.796875 -15.09375 C 6.785156 -13.988281 6.28125 -12.507812 6.28125 -10.65625 C 6.28125 -8.8125 6.785156 -7.332031 7.796875 -6.21875 C 8.816406 -5.113281 10.1875 -4.5625 11.90625 -4.5625 C 13.132812 -4.5625 14.132812 -4.867188 14.90625 -5.484375 C 15.675781 -6.097656 16.191406 -6.914062 16.453125 -7.9375 L 10.484375 -7.9375 L 10.484375 -11.875 L 22.015625 -11.875 L 22.015625 -7.9375 C 21.628906 -6.007812 20.570312 -4.207031 18.84375 -2.53125 C 18.019531 -1.726562 17 -1.070312 15.78125 -0.5625 C 14.5625 -0.0625 13.269531 0.1875 11.90625 0.1875 C 8.863281 0.1875 6.289062 -0.832031 4.1875 -2.875 Z M 4.1875 -2.875 "/></g></g></g><g fill="#268fcd" fill-opacity="1"><g transform="translate(123.120734, 241.551181)"><g><path d="M 13.71875 -16.859375 L 18.875 -16.859375 L 18.875 0 L 13.71875 0 L 13.71875 -2.484375 C 12.644531 -0.703125 10.941406 0.1875 8.609375 0.1875 C 6.671875 0.1875 5.101562 -0.457031 3.90625 -1.75 C 2.707031 -3.039062 2.109375 -4.789062 2.109375 -7 L 2.109375 -16.859375 L 7.25 -16.859375 L 7.25 -7.703125 C 7.25 -6.617188 7.535156 -5.773438 8.109375 -5.171875 C 8.679688 -4.578125 9.46875 -4.28125 10.46875 -4.28125 C 11.476562 -4.28125 12.269531 -4.578125 12.84375 -5.171875 C 13.425781 -5.773438 13.71875 -6.617188 13.71875 -7.703125 Z M 13.71875 -16.859375 "/></g></g></g><g fill="#268fcd" fill-opacity="1"><g transform="translate(144.260156, 241.551181)"><g><path d="M 6.96875 -18.75 C 6.382812 -18.164062 5.671875 -17.875 4.828125 -17.875 C 3.984375 -17.875 3.269531 -18.164062 2.6875 -18.75 C 2.101562 -19.332031 1.8125 -20.050781 1.8125 -20.90625 C 1.8125 -21.769531 2.101562 -22.492188 2.6875 -23.078125 C 3.269531 -23.660156 3.984375 -23.953125 4.828125 -23.953125 C 5.671875 -23.953125 6.382812 -23.660156 6.96875 -23.078125 C 7.5625 -22.492188 7.859375 -21.769531 7.859375 -20.90625 C 7.859375 -20.050781 7.5625 -19.332031 6.96875 -18.75 Z M 2.265625 0 L 2.265625 -16.859375 L 7.4375 -16.859375 L 7.4375 0 Z M 2.265625 0 "/></g></g></g><g fill="#268fcd" fill-opacity="1"><g transform="translate(153.95409, 241.551181)"><g><path d="M 12.53125 -5.34375 C 13.28125 -6.070312 13.65625 -7.097656 13.65625 -8.421875 C 13.65625 -9.753906 13.28125 -10.773438 12.53125 -11.484375 C 11.789062 -12.203125 10.9375 -12.5625 9.96875 -12.5625 C 9 -12.5625 8.140625 -12.195312 7.390625 -11.46875 C 6.648438 -10.75 6.28125 -9.722656 6.28125 -8.390625 C 6.28125 -7.066406 6.648438 -6.046875 7.390625 -5.328125 C 8.140625 -4.617188 9 -4.265625 9.96875 -4.265625 C 10.9375 -4.265625 11.789062 -4.625 12.53125 -5.34375 Z M 3.265625 -2.203125 C 1.773438 -3.816406 1.03125 -5.878906 1.03125 -8.390625 C 1.03125 -10.910156 1.773438 -12.976562 3.265625 -14.59375 C 4.753906 -16.21875 6.570312 -17.03125 8.71875 -17.03125 C 10.863281 -17.03125 12.507812 -16.238281 13.65625 -14.65625 L 13.65625 -22.34375 L 18.8125 -22.34375 L 18.8125 0 L 13.65625 0 L 13.65625 -2.453125 C 12.40625 -0.671875 10.734375 0.21875 8.640625 0.21875 C 6.546875 0.21875 4.753906 -0.585938 3.265625 -2.203125 Z M 3.265625 -2.203125 "/></g></g></g><g fill="#268fcd" fill-opacity="1"><g transform="translate(175.033111, 241.551181)"><g><path d="M 9.421875 0.21875 C 6.960938 0.21875 4.945312 -0.570312 3.375 -2.15625 C 1.8125 -3.738281 1.03125 -5.835938 1.03125 -8.453125 C 1.03125 -11.078125 1.804688 -13.160156 3.359375 -14.703125 C 4.921875 -16.253906 6.941406 -17.03125 9.421875 -17.03125 C 11.898438 -17.03125 13.953125 -16.265625 15.578125 -14.734375 C 17.210938 -13.203125 18.03125 -11.078125 18.03125 -8.359375 C 18.03125 -7.773438 17.988281 -7.234375 17.90625 -6.734375 L 6.3125 -6.734375 C 6.414062 -5.992188 6.75 -5.382812 7.3125 -4.90625 C 7.875 -4.4375 8.484375 -4.203125 9.140625 -4.203125 C 9.796875 -4.203125 10.28125 -4.265625 10.59375 -4.390625 C 10.914062 -4.523438 11.148438 -4.65625 11.296875 -4.78125 C 11.453125 -4.914062 11.65625 -5.132812 11.90625 -5.4375 L 17.484375 -5.4375 C 17.003906 -3.75 16.035156 -2.382812 14.578125 -1.34375 C 13.128906 -0.300781 11.410156 0.21875 9.421875 0.21875 Z M 12.65625 -9.96875 C 12.570312 -10.75 12.226562 -11.382812 11.625 -11.875 C 11.019531 -12.375 10.304688 -12.625 9.484375 -12.625 C 8.660156 -12.625 7.960938 -12.375 7.390625 -11.875 C 6.828125 -11.382812 6.476562 -10.75 6.34375 -9.96875 Z M 12.65625 -9.96875 "/></g></g></g><g fill="#268fcd" fill-opacity="1"><g transform="translate(194.118982, 241.551181)"><g/></g></g><g fill="#79b84e" fill-opacity="1"><g transform="translate(203.171513, 241.551181)"><g><path d="M 15.953125 -6.21875 C 16.972656 -7.332031 17.484375 -8.8125 17.484375 -10.65625 C 17.484375 -12.507812 16.972656 -13.988281 15.953125 -15.09375 C 14.941406 -16.207031 13.582031 -16.765625 11.875 -16.765625 C 10.175781 -16.765625 8.816406 -16.207031 7.796875 -15.09375 C 6.785156 -13.988281 6.28125 -12.507812 6.28125 -10.65625 C 6.28125 -8.8125 6.785156 -7.332031 7.796875 -6.21875 C 8.816406 -5.113281 10.175781 -4.5625 11.875 -4.5625 C 13.582031 -4.5625 14.941406 -5.113281 15.953125 -6.21875 Z M 4.1875 -2.859375 C 2.082031 -4.921875 1.03125 -7.519531 1.03125 -10.65625 C 1.03125 -13.800781 2.082031 -16.394531 4.1875 -18.4375 C 6.289062 -20.476562 8.863281 -21.5 11.90625 -21.5 C 14.957031 -21.5 17.523438 -20.476562 19.609375 -18.4375 C 21.703125 -16.394531 22.75 -13.800781 22.75 -10.65625 C 22.75 -7.519531 21.695312 -4.921875 19.59375 -2.859375 C 17.5 -0.804688 14.929688 0.21875 11.890625 0.21875 C 8.859375 0.21875 6.289062 -0.804688 4.1875 -2.859375 Z M 4.1875 -2.859375 "/></g></g></g><g fill="#268fcd" fill-opacity="1"><g transform="translate(226.960574, 241.551181)"><g><path d="M 7.4375 -16.859375 L 7.4375 -14.375 C 8.5 -16.144531 10.195312 -17.03125 12.53125 -17.03125 C 14.46875 -17.03125 16.035156 -16.382812 17.234375 -15.09375 C 18.429688 -13.8125 19.03125 -12.0625 19.03125 -9.84375 L 19.03125 0 L 13.890625 0 L 13.890625 -9.15625 C 13.890625 -10.238281 13.601562 -11.078125 13.03125 -11.671875 C 12.457031 -12.265625 11.664062 -12.5625 10.65625 -12.5625 C 9.65625 -12.5625 8.867188 -12.265625 8.296875 -11.671875 C 7.722656 -11.078125 7.4375 -10.238281 7.4375 -9.15625 L 7.4375 0 L 2.265625 0 L 2.265625 -16.859375 Z M 7.4375 -16.859375 "/></g></g></g><g fill="#268fcd" fill-opacity="1"><g transform="translate(248.099996, 241.551181)"><g><path d="M 9.421875 0.21875 C 6.960938 0.21875 4.945312 -0.570312 3.375 -2.15625 C 1.8125 -3.738281 1.03125 -5.835938 1.03125 -8.453125 C 1.03125 -11.078125 1.804688 -13.160156 3.359375 -14.703125 C 4.921875 -16.253906 6.941406 -17.03125 9.421875 -17.03125 C 11.898438 -17.03125 13.953125 -16.265625 15.578125 -14.734375 C 17.210938 -13.203125 18.03125 -11.078125 18.03125 -8.359375 C 18.03125 -7.773438 17.988281 -7.234375 17.90625 -6.734375 L 6.3125 -6.734375 C 6.414062 -5.992188 6.75 -5.382812 7.3125 -4.90625 C 7.875 -4.4375 8.484375 -4.203125 9.140625 -4.203125 C 9.796875 -4.203125 10.28125 -4.265625 10.59375 -4.390625 C 10.914062 -4.523438 11.148438 -4.65625 11.296875 -4.78125 C 11.453125 -4.914062 11.65625 -5.132812 11.90625 -5.4375 L 17.484375 -5.4375 C 17.003906 -3.75 16.035156 -2.382812 14.578125 -1.34375 C 13.128906 -0.300781 11.410156 0.21875 9.421875 0.21875 Z M 12.65625 -9.96875 C 12.570312 -10.75 12.226562 -11.382812 11.625 -11.875 C 11.019531 -12.375 10.304688 -12.625 9.484375 -12.625 C 8.660156 -12.625 7.960938 -12.375 7.390625 -11.875 C 6.828125 -11.382812 6.476562 -10.75 6.34375 -9.96875 Z M 12.65625 -9.96875 "/></g></g></g><g fill="#79b84e" fill-opacity="1"><g transform="translate(267.179322, 241.551181)"><g><path d="M 6.703125 -2.8125 C 6.703125 -2.019531 6.429688 -1.351562 5.890625 -0.8125 C 5.347656 -0.269531 4.675781 0 3.875 0 C 3.082031 0 2.414062 -0.269531 1.875 -0.8125 C 1.332031 -1.351562 1.0625 -2.019531 1.0625 -2.8125 C 1.0625 -3.613281 1.332031 -4.285156 1.875 -4.828125 C 2.414062 -5.367188 3.082031 -5.640625 3.875 -5.640625 C 4.675781 -5.640625 5.347656 -5.367188 5.890625 -4.828125 C 6.429688 -4.285156 6.703125 -3.613281 6.703125 -2.8125 Z M 6.703125 -2.8125 "/></g></g></g><g fill="#737373" fill-opacity="1"><g transform="translate(120.845094, 260.034504)"><g><path d="M 3.796875 -7.140625 C 4.273438 -7.140625 4.722656 -7.039062 5.140625 -6.84375 C 5.566406 -6.65625 5.9375 -6.394531 6.25 -6.0625 C 6.570312 -5.738281 6.820312 -5.359375 7 -4.921875 C 7.1875 -4.484375 7.28125 -4.015625 7.28125 -3.515625 C 7.28125 -3.023438 7.1875 -2.554688 7 -2.109375 C 6.820312 -1.671875 6.570312 -1.285156 6.25 -0.953125 C 5.9375 -0.617188 5.566406 -0.351562 5.140625 -0.15625 C 4.722656 0.03125 4.273438 0.125 3.796875 0.125 C 3.316406 0.125 2.863281 0.03125 2.4375 -0.15625 C 2.019531 -0.351562 1.65625 -0.617188 1.34375 -0.953125 C 1.03125 -1.285156 0.78125 -1.671875 0.59375 -2.109375 C 0.414062 -2.554688 0.328125 -3.023438 0.328125 -3.515625 C 0.328125 -4.015625 0.414062 -4.484375 0.59375 -4.921875 C 0.78125 -5.359375 1.03125 -5.738281 1.34375 -6.0625 C 1.65625 -6.394531 2.019531 -6.65625 2.4375 -6.84375 C 2.863281 -7.039062 3.316406 -7.140625 3.796875 -7.140625 Z M 3.796875 -1.375 C 4.066406 -1.375 4.320312 -1.425781 4.5625 -1.53125 C 4.800781 -1.644531 5.007812 -1.800781 5.1875 -2 C 5.363281 -2.195312 5.503906 -2.425781 5.609375 -2.6875 C 5.710938 -2.945312 5.765625 -3.222656 5.765625 -3.515625 C 5.765625 -3.816406 5.710938 -4.097656 5.609375 -4.359375 C 5.503906 -4.617188 5.363281 -4.847656 5.1875 -5.046875 C 5.007812 -5.242188 4.800781 -5.394531 4.5625 -5.5 C 4.320312 -5.613281 4.066406 -5.671875 3.796875 -5.671875 C 3.523438 -5.671875 3.269531 -5.613281 3.03125 -5.5 C 2.789062 -5.394531 2.582031 -5.242188 2.40625 -5.046875 C 2.226562 -4.847656 2.085938 -4.617188 1.984375 -4.359375 C 1.878906 -4.097656 1.828125 -3.816406 1.828125 -3.515625 C 1.828125 -3.222656 1.878906 -2.945312 1.984375 -2.6875 C 2.085938 -2.425781 2.226562 -2.195312 2.40625 -2 C 2.582031 -1.800781 2.789062 -1.644531 3.03125 -1.53125 C 3.269531 -1.425781 3.523438 -1.375 3.796875 -1.375 Z M 3.796875 -1.375 "/></g></g></g><g fill="#737373" fill-opacity="1"><g transform="translate(130.696306, 260.034504)"><g><path d="M 5.28125 -7.046875 L 6.78125 -7.046875 L 6.78125 0 L 5.359375 0 L 1.96875 -4.59375 L 1.96875 0 L 0.46875 0 L 0.46875 -7.046875 L 1.875 -7.046875 L 5.28125 -2.421875 Z M 5.28125 -7.046875 "/></g></g></g><g fill="#737373" fill-opacity="1"><g transform="translate(140.199698, 260.034504)"><g><path d="M 0.484375 -7.046875 L 4.875 -7.046875 L 4.875 -5.671875 L 1.984375 -5.671875 L 1.984375 -4.40625 L 4.53125 -4.40625 L 4.53125 -3.03125 L 1.984375 -3.03125 L 1.984375 -1.359375 L 4.875 -1.359375 L 4.875 0 L 0.484375 0 Z M 0.484375 -7.046875 "/></g></g></g><g fill="#737373" fill-opacity="1"><g transform="translate(147.80502, 260.034504)"><g/></g></g><g fill="#737373" fill-opacity="1"><g transform="translate(152.786816, 260.034504)"><g><path d="M 4.953125 -3.625 C 5.222656 -3.457031 5.429688 -3.242188 5.578125 -2.984375 C 5.722656 -2.734375 5.796875 -2.4375 5.796875 -2.09375 C 5.796875 -1.78125 5.71875 -1.484375 5.5625 -1.203125 C 5.414062 -0.929688 5.203125 -0.691406 4.921875 -0.484375 C 4.671875 -0.285156 4.382812 -0.132812 4.0625 -0.03125 C 3.75 0.0703125 3.410156 0.125 3.046875 0.125 C 2.691406 0.125 2.351562 0.078125 2.03125 -0.015625 C 1.707031 -0.117188 1.414062 -0.269531 1.15625 -0.46875 C 0.78125 -0.75 0.523438 -1.09375 0.390625 -1.5 L 1.78125 -2.140625 C 1.78125 -2.078125 1.800781 -1.992188 1.84375 -1.890625 C 1.894531 -1.796875 1.96875 -1.703125 2.0625 -1.609375 C 2.164062 -1.515625 2.296875 -1.429688 2.453125 -1.359375 C 2.609375 -1.296875 2.804688 -1.265625 3.046875 -1.265625 C 3.222656 -1.265625 3.382812 -1.285156 3.53125 -1.328125 C 3.675781 -1.378906 3.796875 -1.441406 3.890625 -1.515625 C 3.984375 -1.585938 4.054688 -1.664062 4.109375 -1.75 C 4.160156 -1.84375 4.1875 -1.9375 4.1875 -2.03125 C 4.1875 -2.132812 4.148438 -2.234375 4.078125 -2.328125 C 4.003906 -2.421875 3.894531 -2.492188 3.75 -2.546875 C 3.488281 -2.640625 3.207031 -2.71875 2.90625 -2.78125 C 2.613281 -2.84375 2.328125 -2.921875 2.046875 -3.015625 C 1.773438 -3.109375 1.519531 -3.234375 1.28125 -3.390625 C 1.039062 -3.554688 0.851562 -3.78125 0.71875 -4.0625 C 0.59375 -4.3125 0.53125 -4.582031 0.53125 -4.875 C 0.53125 -5.1875 0.601562 -5.488281 0.75 -5.78125 C 0.894531 -6.082031 1.097656 -6.335938 1.359375 -6.546875 C 1.609375 -6.742188 1.882812 -6.890625 2.1875 -6.984375 C 2.488281 -7.085938 2.8125 -7.140625 3.15625 -7.140625 C 3.488281 -7.140625 3.804688 -7.085938 4.109375 -6.984375 C 4.421875 -6.890625 4.703125 -6.75 4.953125 -6.5625 C 5.191406 -6.382812 5.378906 -6.175781 5.515625 -5.9375 L 4.375 -5.15625 C 4.238281 -5.351562 4.066406 -5.507812 3.859375 -5.625 C 3.648438 -5.738281 3.414062 -5.796875 3.15625 -5.796875 C 2.800781 -5.796875 2.523438 -5.710938 2.328125 -5.546875 C 2.128906 -5.390625 2.03125 -5.179688 2.03125 -4.921875 C 2.03125 -4.804688 2.082031 -4.703125 2.1875 -4.609375 C 2.300781 -4.515625 2.445312 -4.429688 2.625 -4.359375 C 2.800781 -4.285156 3 -4.21875 3.21875 -4.15625 C 3.4375 -4.101562 3.648438 -4.050781 3.859375 -4 C 4.078125 -3.945312 4.28125 -3.890625 4.46875 -3.828125 C 4.664062 -3.765625 4.828125 -3.695312 4.953125 -3.625 Z M 4.953125 -3.625 "/></g></g></g><g fill="#737373" fill-opacity="1"><g transform="translate(161.157322, 260.034504)"><g><path d="M 0.234375 -7.046875 L 5.328125 -7.046875 L 5.328125 -5.671875 L 3.53125 -5.671875 L 3.53125 0 L 2.03125 0 L 2.03125 -5.671875 L 0.234375 -5.671875 Z M 0.234375 -7.046875 "/></g></g></g><g fill="#737373" fill-opacity="1"><g transform="translate(168.961391, 260.034504)"><g><path d="M 0.484375 -7.046875 L 4.875 -7.046875 L 4.875 -5.671875 L 1.984375 -5.671875 L 1.984375 -4.40625 L 4.53125 -4.40625 L 4.53125 -3.03125 L 1.984375 -3.03125 L 1.984375 -1.359375 L 4.875 -1.359375 L 4.875 0 L 0.484375 0 Z M 0.484375 -7.046875 "/></g></g></g><g fill="#737373" fill-opacity="1"><g transform="translate(176.56671, 260.034504)"><g><path d="M 3.515625 -7.046875 C 3.785156 -7.046875 4.039062 -6.988281 4.28125 -6.875 C 4.53125 -6.769531 4.742188 -6.625 4.921875 -6.4375 C 5.109375 -6.25 5.253906 -6.023438 5.359375 -5.765625 C 5.472656 -5.515625 5.53125 -5.242188 5.53125 -4.953125 C 5.53125 -4.660156 5.472656 -4.382812 5.359375 -4.125 C 5.253906 -3.875 5.109375 -3.648438 4.921875 -3.453125 C 4.742188 -3.265625 4.53125 -3.113281 4.28125 -3 C 4.039062 -2.894531 3.785156 -2.84375 3.515625 -2.84375 L 1.96875 -2.84375 L 1.96875 0 L 0.46875 0 L 0.46875 -7.046875 Z M 3.3125 -4.21875 C 3.5 -4.21875 3.664062 -4.285156 3.8125 -4.421875 C 3.957031 -4.566406 4.03125 -4.742188 4.03125 -4.953125 C 4.03125 -5.148438 3.957031 -5.316406 3.8125 -5.453125 C 3.664062 -5.597656 3.5 -5.671875 3.3125 -5.671875 L 1.96875 -5.671875 L 1.96875 -4.21875 Z M 3.3125 -4.21875 "/></g></g></g><g fill="#737373" fill-opacity="1"><g transform="translate(184.460215, 260.034504)"><g/></g></g><g fill="#737373" fill-opacity="1"><g transform="translate(189.442011, 260.034504)"><g><path d="M 4.953125 -3.625 C 5.222656 -3.457031 5.429688 -3.242188 5.578125 -2.984375 C 5.722656 -2.734375 5.796875 -2.4375 5.796875 -2.09375 C 5.796875 -1.78125 5.71875 -1.484375 5.5625 -1.203125 C 5.414062 -0.929688 5.203125 -0.691406 4.921875 -0.484375 C 4.671875 -0.285156 4.382812 -0.132812 4.0625 -0.03125 C 3.75 0.0703125 3.410156 0.125 3.046875 0.125 C 2.691406 0.125 2.351562 0.078125 2.03125 -0.015625 C 1.707031 -0.117188 1.414062 -0.269531 1.15625 -0.46875 C 0.78125 -0.75 0.523438 -1.09375 0.390625 -1.5 L 1.78125 -2.140625 C 1.78125 -2.078125 1.800781 -1.992188 1.84375 -1.890625 C 1.894531 -1.796875 1.96875 -1.703125 2.0625 -1.609375 C 2.164062 -1.515625 2.296875 -1.429688 2.453125 -1.359375 C 2.609375 -1.296875 2.804688 -1.265625 3.046875 -1.265625 C 3.222656 -1.265625 3.382812 -1.285156 3.53125 -1.328125 C 3.675781 -1.378906 3.796875 -1.441406 3.890625 -1.515625 C 3.984375 -1.585938 4.054688 -1.664062 4.109375 -1.75 C 4.160156 -1.84375 4.1875 -1.9375 4.1875 -2.03125 C 4.1875 -2.132812 4.148438 -2.234375 4.078125 -2.328125 C 4.003906 -2.421875 3.894531 -2.492188 3.75 -2.546875 C 3.488281 -2.640625 3.207031 -2.71875 2.90625 -2.78125 C 2.613281 -2.84375 2.328125 -2.921875 2.046875 -3.015625 C 1.773438 -3.109375 1.519531 -3.234375 1.28125 -3.390625 C 1.039062 -3.554688 0.851562 -3.78125 0.71875 -4.0625 C 0.59375 -4.3125 0.53125 -4.582031 0.53125 -4.875 C 0.53125 -5.1875 0.601562 -5.488281 0.75 -5.78125 C 0.894531 -6.082031 1.097656 -6.335938 1.359375 -6.546875 C 1.609375 -6.742188 1.882812 -6.890625 2.1875 -6.984375 C 2.488281 -7.085938 2.8125 -7.140625 3.15625 -7.140625 C 3.488281 -7.140625 3.804688 -7.085938 4.109375 -6.984375 C 4.421875 -6.890625 4.703125 -6.75 4.953125 -6.5625 C 5.191406 -6.382812 5.378906 -6.175781 5.515625 -5.9375 L 4.375 -5.15625 C 4.238281 -5.351562 4.066406 -5.507812 3.859375 -5.625 C 3.648438 -5.738281 3.414062 -5.796875 3.15625 -5.796875 C 2.800781 -5.796875 2.523438 -5.710938 2.328125 -5.546875 C 2.128906 -5.390625 2.03125 -5.179688 2.03125 -4.921875 C 2.03125 -4.804688 2.082031 -4.703125 2.1875 -4.609375 C 2.300781 -4.515625 2.445312 -4.429688 2.625 -4.359375 C 2.800781 -4.285156 3 -4.21875 3.21875 -4.15625 C 3.4375 -4.101562 3.648438 -4.050781 3.859375 -4 C 4.078125 -3.945312 4.28125 -3.890625 4.46875 -3.828125 C 4.664062 -3.765625 4.828125 -3.695312 4.953125 -3.625 Z M 4.953125 -3.625 "/></g></g></g><g fill="#737373" fill-opacity="1"><g transform="translate(197.812517, 260.034504)"><g><path d="M 3.796875 -7.140625 C 4.273438 -7.140625 4.722656 -7.039062 5.140625 -6.84375 C 5.566406 -6.65625 5.9375 -6.394531 6.25 -6.0625 C 6.570312 -5.738281 6.820312 -5.359375 7 -4.921875 C 7.1875 -4.484375 7.28125 -4.015625 7.28125 -3.515625 C 7.28125 -3.023438 7.1875 -2.554688 7 -2.109375 C 6.820312 -1.671875 6.570312 -1.285156 6.25 -0.953125 C 5.9375 -0.617188 5.566406 -0.351562 5.140625 -0.15625 C 4.722656 0.03125 4.273438 0.125 3.796875 0.125 C 3.316406 0.125 2.863281 0.03125 2.4375 -0.15625 C 2.019531 -0.351562 1.65625 -0.617188 1.34375 -0.953125 C 1.03125 -1.285156 0.78125 -1.671875 0.59375 -2.109375 C 0.414062 -2.554688 0.328125 -3.023438 0.328125 -3.515625 C 0.328125 -4.015625 0.414062 -4.484375 0.59375 -4.921875 C 0.78125 -5.359375 1.03125 -5.738281 1.34375 -6.0625 C 1.65625 -6.394531 2.019531 -6.65625 2.4375 -6.84375 C 2.863281 -7.039062 3.316406 -7.140625 3.796875 -7.140625 Z M 3.796875 -1.375 C 4.066406 -1.375 4.320312 -1.425781 4.5625 -1.53125 C 4.800781 -1.644531 5.007812 -1.800781 5.1875 -2 C 5.363281 -2.195312 5.503906 -2.425781 5.609375 -2.6875 C 5.710938 -2.945312 5.765625 -3.222656 5.765625 -3.515625 C 5.765625 -3.816406 5.710938 -4.097656 5.609375 -4.359375 C 5.503906 -4.617188 5.363281 -4.847656 5.1875 -5.046875 C 5.007812 -5.242188 4.800781 -5.394531 4.5625 -5.5 C 4.320312 -5.613281 4.066406 -5.671875 3.796875 -5.671875 C 3.523438 -5.671875 3.269531 -5.613281 3.03125 -5.5 C 2.789062 -5.394531 2.582031 -5.242188 2.40625 -5.046875 C 2.226562 -4.847656 2.085938 -4.617188 1.984375 -4.359375 C 1.878906 -4.097656 1.828125 -3.816406 1.828125 -3.515625 C 1.828125 -3.222656 1.878906 -2.945312 1.984375 -2.6875 C 2.085938 -2.425781 2.226562 -2.195312 2.40625 -2 C 2.582031 -1.800781 2.789062 -1.644531 3.03125 -1.53125 C 3.269531 -1.425781 3.523438 -1.375 3.796875 -1.375 Z M 3.796875 -1.375 "/></g></g></g><g fill="#737373" fill-opacity="1"><g transform="translate(207.663728, 260.034504)"><g><path d="M 1.984375 -1.359375 L 4.875 -1.359375 L 4.875 0 L 0.46875 0 L 0.46875 -7.046875 L 1.984375 -7.046875 Z M 1.984375 -1.359375 "/></g></g></g><g fill="#737373" fill-opacity="1"><g transform="translate(214.881481, 260.034504)"><g><path d="M 4.453125 -7.046875 L 5.953125 -7.046875 L 5.953125 -2.546875 C 5.953125 -2.191406 5.878906 -1.851562 5.734375 -1.53125 C 5.585938 -1.207031 5.390625 -0.921875 5.140625 -0.671875 C 4.890625 -0.429688 4.59375 -0.238281 4.25 -0.09375 C 3.914062 0.0507812 3.5625 0.125 3.1875 0.125 C 2.800781 0.125 2.4375 0.0507812 2.09375 -0.09375 C 1.757812 -0.238281 1.46875 -0.429688 1.21875 -0.671875 C 0.976562 -0.921875 0.785156 -1.207031 0.640625 -1.53125 C 0.492188 -1.851562 0.421875 -2.191406 0.421875 -2.546875 L 0.421875 -7.046875 L 1.921875 -7.046875 L 1.921875 -2.84375 C 1.921875 -2.644531 1.953125 -2.457031 2.015625 -2.28125 C 2.078125 -2.101562 2.164062 -1.945312 2.28125 -1.8125 C 2.394531 -1.675781 2.53125 -1.566406 2.6875 -1.484375 C 2.84375 -1.410156 3.007812 -1.375 3.1875 -1.375 C 3.363281 -1.375 3.523438 -1.410156 3.671875 -1.484375 C 3.828125 -1.566406 3.960938 -1.675781 4.078125 -1.8125 C 4.191406 -1.945312 4.28125 -2.101562 4.34375 -2.28125 C 4.414062 -2.457031 4.453125 -2.644531 4.453125 -2.84375 Z M 4.453125 -7.046875 "/></g></g></g><g fill="#737373" fill-opacity="1"><g transform="translate(223.490499, 260.034504)"><g><path d="M 0.234375 -7.046875 L 5.328125 -7.046875 L 5.328125 -5.671875 L 3.53125 -5.671875 L 3.53125 0 L 2.03125 0 L 2.03125 -5.671875 L 0.234375 -5.671875 Z M 0.234375 -7.046875 "/></g></g></g><g fill="#737373" fill-opacity="1"><g transform="translate(231.294568, 260.034504)"><g><path d="M 3.03125 -7.046875 L 3.03125 -5.78125 L 2.5 -5.78125 L 2.5 -1.265625 L 3.03125 -1.265625 L 3.03125 0 L 0.46875 0 L 0.46875 -1.265625 L 1 -1.265625 L 1 -5.78125 L 0.46875 -5.78125 L 0.46875 -7.046875 Z M 3.03125 -7.046875 "/></g></g></g><g fill="#737373" fill-opacity="1"><g transform="translate(237.031617, 260.034504)"><g><path d="M 3.796875 -7.140625 C 4.273438 -7.140625 4.722656 -7.039062 5.140625 -6.84375 C 5.566406 -6.65625 5.9375 -6.394531 6.25 -6.0625 C 6.570312 -5.738281 6.820312 -5.359375 7 -4.921875 C 7.1875 -4.484375 7.28125 -4.015625 7.28125 -3.515625 C 7.28125 -3.023438 7.1875 -2.554688 7 -2.109375 C 6.820312 -1.671875 6.570312 -1.285156 6.25 -0.953125 C 5.9375 -0.617188 5.566406 -0.351562 5.140625 -0.15625 C 4.722656 0.03125 4.273438 0.125 3.796875 0.125 C 3.316406 0.125 2.863281 0.03125 2.4375 -0.15625 C 2.019531 -0.351562 1.65625 -0.617188 1.34375 -0.953125 C 1.03125 -1.285156 0.78125 -1.671875 0.59375 -2.109375 C 0.414062 -2.554688 0.328125 -3.023438 0.328125 -3.515625 C 0.328125 -4.015625 0.414062 -4.484375 0.59375 -4.921875 C 0.78125 -5.359375 1.03125 -5.738281 1.34375 -6.0625 C 1.65625 -6.394531 2.019531 -6.65625 2.4375 -6.84375 C 2.863281 -7.039062 3.316406 -7.140625 3.796875 -7.140625 Z M 3.796875 -1.375 C 4.066406 -1.375 4.320312 -1.425781 4.5625 -1.53125 C 4.800781 -1.644531 5.007812 -1.800781 5.1875 -2 C 5.363281 -2.195312 5.503906 -2.425781 5.609375 -2.6875 C 5.710938 -2.945312 5.765625 -3.222656 5.765625 -3.515625 C 5.765625 -3.816406 5.710938 -4.097656 5.609375 -4.359375 C 5.503906 -4.617188 5.363281 -4.847656 5.1875 -5.046875 C 5.007812 -5.242188 4.800781 -5.394531 4.5625 -5.5 C 4.320312 -5.613281 4.066406 -5.671875 3.796875 -5.671875 C 3.523438 -5.671875 3.269531 -5.613281 3.03125 -5.5 C 2.789062 -5.394531 2.582031 -5.242188 2.40625 -5.046875 C 2.226562 -4.847656 2.085938 -4.617188 1.984375 -4.359375 C 1.878906 -4.097656 1.828125 -3.816406 1.828125 -3.515625 C 1.828125 -3.222656 1.878906 -2.945312 1.984375 -2.6875 C 2.085938 -2.425781 2.226562 -2.195312 2.40625 -2 C 2.582031 -1.800781 2.789062 -1.644531 3.03125 -1.53125 C 3.269531 -1.425781 3.523438 -1.375 3.796875 -1.375 Z M 3.796875 -1.375 "/></g></g></g><g fill="#737373" fill-opacity="1"><g transform="translate(246.882828, 260.034504)"><g><path d="M 5.28125 -7.046875 L 6.78125 -7.046875 L 6.78125 0 L 5.359375 0 L 1.96875 -4.59375 L 1.96875 0 L 0.46875 0 L 0.46875 -7.046875 L 1.875 -7.046875 L 5.28125 -2.421875 Z M 5.28125 -7.046875 "/></g></g></g></svg>